HIERARCHY
ROOT Hips
{
  OFFSET 52.9416 93.7549 6.27764
  CHANNELS 6 Xposition Yposition Zposition Zrotation Xrotation Yrotation
  JOINT spine
  {
    OFFSET 0 7.4756 0.429885
    CHANNELS 3 Zrotation Xrotation Yrotation
    JOINT spine1
    {
      OFFSET 0 9.92301 0
      CHANNELS 3 Zrotation Xrotation Yrotation
      JOINT spine2
      {
        OFFSET 0 9.50804 0
        CHANNELS 3 Zrotation Xrotation Yrotation
        JOINT Neck
        {
          OFFSET 0 24.4111 1.16384
          CHANNELS 3 Zrotation Xrotation Yrotation
          JOINT Head
          {
            OFFSET 0 7.37523 0
            CHANNELS 3 Zrotation Xrotation Yrotation
            End Site
            {
              OFFSET 0 17.8522 -5.88741
            }
          }
        }
        JOINT RightShoulder
        {
          OFFSET -4.00356 10.2679 -0.557468
          CHANNELS 3 Zrotation Xrotation Yrotation
          JOINT RightArm
          {
            OFFSET 0 13.4673 0
            CHANNELS 3 Zrotation Xrotation Yrotation
            JOINT RightArmRoll
            {
              OFFSET 0 6.79858 0
              CHANNELS 3 Zrotation Xrotation Yrotation
              JOINT RightForeArm
              {
                OFFSET 0 19.8018 0
                CHANNELS 3 Zrotation Xrotation Yrotation
                JOINT RightForeArmRoll
                {
                  OFFSET 0 7.62905 0
                  CHANNELS 3 Zrotation Xrotation Yrotation
                  JOINT RightHand
                  {
                    OFFSET 0 15.3098 0
                    CHANNELS 3 Zrotation Xrotation Yrotation
                    End Site
                    {
                      OFFSET 0 0 0
                    }
                  }
                }
              }
            }
          }
        }
        JOINT LeftShoulder
        {
          OFFSET 4.00356 10.2679 -0.557468
          CHANNELS 3 Zrotation Xrotation Yrotation
          JOINT LeftArm
          {
            OFFSET 0 13.4673 0
            CHANNELS 3 Zrotation Xrotation Yrotation
            JOINT LeftArmRoll
            {
              OFFSET 0 6.79858 0
              CHANNELS 3 Zrotation Xrotation Yrotation
              JOINT LeftForeArm
              {
                OFFSET 0 19.8018 0
                CHANNELS 3 Zrotation Xrotation Yrotation
                JOINT LeftForeArmRoll
                {
                  OFFSET 0 7.62905 0
                  CHANNELS 3 Zrotation Xrotation Yrotation
                  JOINT LeftHand
                  {
                    OFFSET 0 15.3098 0
                    CHANNELS 3 Zrotation Xrotation Yrotation
                    End Site
                    {
                      OFFSET 0 0 0
                    }
                  }
                }
              }
            }
          }
        }
      }
    }
  }
  JOINT RightUpLeg
  {
    OFFSET -6.62609 -1.21505 -1.01927
    CHANNELS 3 Zrotation Xrotation Yrotation
    JOINT RightUpLegRoll
    {
      OFFSET 0 17.9517 0
      CHANNELS 3 Zrotation Xrotation Yrotation
      JOINT RightLeg
      {
        OFFSET 0 -22.2304 0
        CHANNELS 3 Zrotation Xrotation Yrotation
        JOINT RightLegRoll
        {
          OFFSET 0 22.3032 0
          CHANNELS 3 Zrotation Xrotation Yrotation
          JOINT RightFoot
          {
            OFFSET 0 18.5636 0
            CHANNELS 3 Zrotation Xrotation Yrotation
            JOINT RightToeBase
            {
              OFFSET 0 15.5183 0
              CHANNELS 3 Zrotation Xrotation Yrotation
              End Site
              {
                OFFSET 0.00657761 7.51538 -0.866263
              }
            }
          }
        }
      }
    }
  }
  JOINT LeftUpLeg
  {
    OFFSET 6.62609 -1.21505 -1.01927
    CHANNELS 3 Zrotation Xrotation Yrotation
    JOINT LeftUpLegRoll
    {
      OFFSET 0 17.9518 0
      CHANNELS 3 Zrotation Xrotation Yrotation
      JOINT LeftLeg
      {
        OFFSET 0 22.2303 0
        CHANNELS 3 Zrotation Xrotation Yrotation
        JOINT LeftLegRoll
        {
          OFFSET 0 22.5093 0
          CHANNELS 3 Zrotation Xrotation Yrotation
          JOINT LeftFoot
          {
            OFFSET 0 18.3575 0
            CHANNELS 3 Zrotation Xrotation Yrotation
            JOINT LeftToeBase
            {
              OFFSET 0 15.5183 0
              CHANNELS 3 Zrotation Xrotation Yrotation
              End Site
              {
                OFFSET -0.029478 7.51539 -0.866263
              }
            }
          }
        }
      }
    }
  }
}
MOTION
Frames: 12
Frame Time: 0.00208333
53.9982 93.6739 5.92532 -1.05948 -3.03058 0.934467 0.0544992 -2.24009 -0.128581 0.104977 -0.477473 -0.270916 0.108225 1.1676 -0.272822 -3.98399 5.57861 -3.56129 5.33933 8.90114 -4.33458 57.885 -5.33942 -3.24792 128.959 33.5784 -40.2601 4.09798e-007 7.86715e-007 -3.36803e-006 -34.6812 87.617 29.1327 4.74388e-006 -5.86049e-006 -2.99999 8.02951 -4.95141 0.697657 -64.7681 -1.8626 1.74697 -79.7633 74.2846 -1.78449 1.91785e-007 -4.1435e-007 3.53106e-006 -13.5743 66.8008 12.8241 -7.61621e-007 -7.3469e-007 2.99999 -8.02923 -4.95145 -0.697675 178.999 -0.047279 -0.891358 180 7.01539e-015 178.889 178.897 7.91434 179.647 -1.96287e-006 -4.96196e-006 0.147952 -19.4056 68.8821 20.2787 8.13649 25.2327 -3.48773 -176.31 -2.15202 1.17827 4.54188e-006 -4.6773e-006 -1.06355 -2.83262 -4.6159 0.00393268 -8.79545e-007 1.71722e-006 -0.046237 18.4628 67.815 -19.3864 -8.13548 25.2327 3.48731 
54.0003 93.6717 5.9317 -1.0665 -3.04046 0.865632 0.0603734 -2.23849 -0.12907 0.116705 -0.474301 -0.271985 0.119969 1.17077 -0.274085 -3.89832 5.56591 -3.51461 5.17982 8.88564 -4.27178 58.1472 -5.30424 -3.24165 128.652 33.0797 -40.3611 4.09798e-007 7.86715e-007 -3.36803e-006 -42.1902 87.7252 36.463 4.74388e-006 -5.86049e-006 -2.99999 8.02951 -4.95141 0.697657 -64.5063 -1.87529 1.72859 -79.6356 74.7596 -2.1856 1.91785e-007 -4.1435e-007 3.53106e-006 -13.2912 65.8875 12.4148 -7.61621e-007 -7.3469e-007 2.99999 -8.02923 -4.95145 -0.697675 179.004 -0.0598854 -0.897168 180 7.01539e-015 178.889 178.903 7.89797 179.647 -1.96287e-006 -4.96196e-006 0.147705 -19.4067 68.8831 20.2797 8.13649 25.2327 -3.48773 -176.309 -2.16847 1.17497 4.54188e-006 -4.6773e-006 -1.06393 -2.83335 -4.63006 0.00397808 -8.79545e-007 1.71722e-006 -0.0462214 18.4611 67.8133 -19.3848 -8.13548 25.2327 3.48731 
54.0188 93.6685 5.9261 -1.07263 -3.05014 0.797267 0.0662185 -2.23705 -0.129584 0.128377 -0.471432 -0.272921 0.131656 1.17364 -0.275212 -3.81539 5.55646 -3.46757 5.02193 8.86686 -4.20921 58.4045 -5.26963 -3.23572 128.351 32.5778 -40.4712 4.09798e-007 7.86715e-007 -3.36803e-006 -50.0248 87.7804 44.1199 4.74388e-006 -5.86049e-006 -2.99999 8.02951 -4.95141 0.697657 -64.2482 -1.88712 1.71003 -79.4854 75.2342 -2.60111 1.91785e-007 -4.1435e-007 3.53106e-006 -13.0065 64.9381 12.0037 -7.61621e-007 -7.3469e-007 2.99999 -8.02923 -4.95145 -0.697675 179.008 -0.0715372 -0.902641 180 7.01539e-015 178.889 178.909 7.88288 179.647 -1.96287e-006 -4.96196e-006 0.147427 -19.4089 68.8851 20.2817 8.13649 25.2327 -3.48773 -176.31 -2.1838 1.1726 4.54188e-006 -4.6773e-006 -1.06436 -2.83365 -4.64613 0.00409587 -8.79545e-007 1.71722e-006 -0.046208 18.4594 67.8117 -19.3832 -8.13548 25.2327 3.48731 
54.0175 93.6707 5.93427 -1.07801 -3.05971 0.729363 0.0720505 -2.23571 -0.130137 0.140023 -0.468755 -0.27378 0.143316 1.17631 -0.276261 -3.73509 5.5495 -3.42018 4.86587 8.84556 -4.14683 58.657 -5.23561 -3.23009 128.053 32.0742 -40.5901 4.09798e-007 7.86715e-007 -3.36803e-006 -57.8127 87.7844 51.7311 4.74388e-006 -5.86049e-006 -2.99999 8.02951 -4.95141 0.697657 -63.9936 -1.89832 1.69143 -79.3126 75.7081 -3.03115 1.91785e-007 -4.1435e-007 3.53106e-006 -12.7242 63.9565 11.5956 -7.61621e-007 -7.3469e-007 2.99999 -8.02923 -4.95145 -0.697675 179.011 -0.082419 -0.907834 180 7.01539e-015 178.889 178.915 7.86893 179.647 -1.96287e-006 -4.96196e-006 0.147125 -19.4118 68.888 20.2846 8.13649 25.2327 -3.48773 -176.311 -2.19827 1.17099 4.54188e-006 -4.6773e-006 -1.06483 -2.83359 -4.66375 0.00427428 -8.79545e-007 1.71722e-006 -0.0461959 18.4578 67.8102 -19.3817 -8.13548 25.2327 3.48731 
54.0103 93.6723 5.94784 -1.08282 -3.06927 0.661912 0.0778851 -2.2344 -0.130743 0.151675 -0.466164 -0.274622 0.154981 1.1789 -0.277292 -3.65729 5.54429 -3.37244 4.71185 8.82248 -4.08463 58.9046 -5.20216 -3.22475 127.76 31.5703 -40.7176 4.09798e-007 7.86715e-007 -3.36803e-006 -65.2 87.742 58.9428 4.74388e-006 -5.86049e-006 -2.99999 8.02951 -4.95141 0.697657 -63.7421 -1.90913 1.6729 -79.1173 76.1813 -3.47582 1.91785e-007 -4.1435e-007 3.53106e-006 -12.4475 62.9466 11.1941 -7.61621e-007 -7.3469e-007 2.99999 -8.02923 -4.95145 -0.697675 179.013 -0.0927153 -0.912803 180 7.01539e-015 178.889 178.922 7.85607 179.648 -1.96287e-006 -4.96196e-006 0.146804 -19.4155 68.8918 20.2883 8.13649 25.2327 -3.48773 -176.314 -2.21208 1.16995 4.54188e-006 -4.6773e-006 -1.06534 -2.83329 -4.68256 0.00450156 -8.79545e-007 1.71722e-006 -0.0461847 18.4563 67.8087 -19.3803 -8.13548 25.2327 3.48731 
54.0171 93.6711 5.95057 -1.0872 -3.07892 0.594907 0.083738 -2.23309 -0.131415 0.163363 -0.46355 -0.275505 0.166683 1.18152 -0.278363 -3.58188 5.54006 -3.32436 4.56005 8.79835 -4.02258 59.1472 -5.16928 -3.21966 127.47 31.0675 -40.8537 4.09798e-007 7.86715e-007 -3.36803e-006 -71.9308 87.6601 65.4994 4.74388e-006 -5.86049e-006 -2.99999 8.02951 -4.95141 0.697657 -63.4937 -1.91977 1.65459 -78.8995 76.6537 -3.93526 1.91785e-007 -4.1435e-007 3.53106e-006 -12.179 61.9126 10.8019 -7.61621e-007 -7.3469e-007 2.99999 -8.02923 -4.95145 -0.697675 179.015 -0.102611 -0.917602 180 7.01539e-015 178.889 178.928 7.84412 179.648 -1.96287e-006 -4.96196e-006 0.14647 -19.4198 68.8961 20.2927 8.13649 25.2327 -3.48773 -176.317 -2.22549 1.16931 4.54188e-006 -4.6773e-006 -1.06588 -2.83283 -4.70219 0.00476596 -8.79545e-007 1.71722e-006 -0.0461735 18.4547 67.8072 -19.3788 -8.13548 25.2327 3.48731 
54.0196 93.6698 5.95264 -1.09131 -3.08876 0.528341 0.0896253 -2.23171 -0.132169 0.175117 -0.460803 -0.276486 0.178454 1.18426 -0.279533 -3.50873 5.53607 -3.27594 4.41068 8.77391 -3.96064 59.3848 -5.13695 -3.21478 127.183 30.5672 -40.998 4.09798e-007 7.86715e-007 -3.36803e-006 -77.8789 87.5462 71.2747 4.74388e-006 -5.86049e-006 -2.99999 8.02951 -4.95141 0.697657 -63.248 -1.93048 1.6366 -78.6593 77.1252 -4.40958 1.91785e-007 -4.1435e-007 3.53106e-006 -11.9203 60.8585 10.4214 -7.61621e-007 -7.3469e-007 2.99999 -8.02923 -4.95145 -0.697675 179.016 -0.112289 -0.922289 180 7.01539e-015 178.889 178.935 7.83301 179.648 -1.96287e-006 -4.96196e-006 0.146131 -19.4246 68.9011 20.2976 8.13649 25.2327 -3.48773 -176.32 -2.23873 1.16886 4.54188e-006 -4.6773e-006 -1.06645 -2.83232 -4.7223 0.0050557 -8.79545e-007 1.71722e-006 -0.0461616 18.4532 67.8057 -19.3774 -8.13548 25.2327 3.48731 
54.0163 93.6697 5.9585 -1.09532 -3.0989 0.462204 0.0955625 -2.23021 -0.133017 0.18697 -0.457815 -0.277625 0.190324 1.18725 -0.280861 -3.43771 5.53156 -3.22719 4.26393 8.7499 -3.8988 59.6174 -5.10517 -3.2101 126.899 30.0707 -41.1504 4.09798e-007 7.86715e-007 -3.36803e-006 -83.0287 87.4079 76.2533 4.74388e-006 -5.86049e-006 -2.99999 8.02951 -4.95141 0.697657 -63.0048 -1.9415 1.61907 -78.3966 77.5957 -4.89889 1.91785e-007 -4.1435e-007 3.53106e-006 -11.6725 59.7883 10.054 -7.61621e-007 -7.3469e-007 2.99999 -8.02923 -4.95145 -0.697675 179.018 -0.121936 -0.92692 180 7.01539e-015 178.89 178.942 7.82262 179.648 -1.96287e-006 -4.96196e-006 0.145791 -19.4298 68.9065 20.3029 8.13649 25.2327 -3.48773 -176.324 -2.25202 1.16844 4.54188e-006 -4.6773e-006 -1.06705 -2.83184 -4.74253 0.00535903 -8.79545e-007 1.71722e-006 -0.0461484 18.4516 67.8042 -19.3759 -8.13548 25.2327 3.48731 
54.0329 93.6702 5.9555 -1.09938 -3.10942 0.396491 0.101566 -2.22853 -0.133975 0.198951 -0.454479 -0.278979 0.202326 1.19059 -0.282407 -3.3687 5.52577 -3.17811 4.11999 8.72706 -3.83702 59.8449 -5.07393 -3.20557 126.618 29.5795 -41.3106 4.09798e-007 7.86715e-007 -3.36803e-006 -87.4366 87.2515 80.4916 4.74388e-006 -5.86049e-006 -2.99999 8.02951 -4.95141 0.697657 -62.764 -1.95304 1.60211 -78.1115 78.0651 -5.40334 1.91785e-007 -4.1435e-007 3.53106e-006 -11.4363 58.7062 9.70092 -7.61621e-007 -7.3469e-007 2.99999 -8.02923 -4.95145 -0.697675 179.019 -0.131735 -0.931549 180 7.01539e-015 178.89 178.949 7.81284 179.648 -1.96287e-006 -4.96196e-006 0.145458 -19.4353 68.9123 20.3086 8.13649 25.2327 -3.48773 -176.327 -2.26561 1.16786 4.54188e-006 -4.6773e-006 -1.06766 -2.83149 -4.7625 0.00566419 -8.79545e-007 1.71722e-006 -0.0461332 18.4499 67.8025 -19.3743 -8.13548 25.2327 3.48731 
54.0341 93.6704 5.9621 -1.10365 -3.12043 0.331192 0.107651 -2.22663 -0.135055 0.211091 -0.450684 -0.280605 0.21449 1.19438 -0.284228 -3.30156 5.51796 -3.1287 3.97905 8.70614 -3.77528 60.0673 -5.04322 -3.20117 126.339 29.0948 -41.4784 4.09798e-007 7.86715e-007 -3.36803e-006 -91.193 87.0825 84.0801 4.74388e-006 -5.86049e-006 -2.99999 8.02951 -4.95141 0.697657 -62.5252 -1.96535 1.58587 -77.8042 78.5334 -5.92304 1.91785e-007 -4.1435e-007 3.53106e-006 -11.212 57.6164 9.36286 -7.61621e-007 -7.3469e-007 2.99999 -8.02923 -4.95145 -0.697675 179.021 -0.141871 -0.936232 180 7.01539e-015 178.89 178.956 7.80355 179.648 -1.96287e-006 -4.96196e-006 0.145137 -19.4411 68.9182 20.3146 8.13649 25.2327 -3.48773 -176.33 -2.27972 1.16694 4.54188e-006 -4.6773e-006 -1.06829 -2.83137 -4.78188 0.00595941 -8.79545e-007 1.71722e-006 -0.0461152 18.4481 67.8008 -19.3727 -8.13548 25.2327 3.48731 
54.0261 93.6726 5.96818 -1.1083 -3.13202 0.266301 0.113833 -2.22444 -0.136273 0.223423 -0.446324 -0.282564 0.226849 1.19874 -0.286385 -3.23616 5.50737 -3.07898 3.84129 8.68787 -3.71354 60.2845 -5.01304 -3.19687 126.062 28.6179 -41.6535 4.09798e-007 7.86715e-007 -3.36803e-006 -94.397 86.9049 87.1182 4.74388e-006 -5.86049e-006 -2.99999 8.02951 -4.95141 0.697657 -62.2882 -1.97865 1.57045 -77.4746 79.0004 -6.4581 1.91785e-007 -4.1435e-007 3.53106e-006 -10.9995 56.523 9.04026 -7.61621e-007 -7.3469e-007 2.99999 -8.02923 -4.95145 -0.697675 179.023 -0.152528 -0.941027 180 7.01539e-015 178.89 178.962 7.79464 179.648 -1.96287e-006 -4.96196e-006 0.144835 -19.4469 68.9243 20.3207 8.13649 25.2327 -3.48773 -176.332 -2.29459 1.16549 4.54188e-006 -4.6773e-006 -1.06893 -2.83157 -4.80029 0.00623293 -8.79545e-007 1.71722e-006 -0.0460938 18.4462 67.7989 -19.3709 -8.13548 25.2327 3.48731 
54.026 93.6696 5.97082 -1.11347 -3.1443 0.201809 0.120129 -2.22191 -0.137642 0.235975 -0.441289 -0.284911 0.239435 1.20377 -0.288935 -3.17236 5.49324 -3.02895 3.70689 8.67298 -3.65179 60.4965 -4.98337 -3.19263 125.788 28.1502 -41.8355 4.09798e-007 7.86715e-007 -3.36803e-006 -97.1436 86.7219 89.7007 4.74388e-006 -5.86049e-006 -2.99999 8.02951 -4.95141 0.697657 -62.0529 -1.99318 1.556 -77.1227 79.4662 -7.00866 1.91785e-007 -4.1435e-007 3.53106e-006 -10.7985 55.4302 8.73333 -7.61621e-007 -7.3469e-007 2.99999 -8.02923 -4.95145 -0.697675 179.026 -0.163892 -0.945988 180 7.01539e-015 178.89 178.969 7.78602 179.648 -1.96287e-006 -4.96196e-006 0.144557 -19.4528 68.9304 20.3268 8.13649 25.2327 -3.48773 -176.334 -2.31045 1.16334 4.54188e-006 -4.6773e-006 -1.06958 -2.83219 -4.81738 0.00647297 -8.79545e-007 1.71722e-006 -0.0460683 18.4442 67.7969 -19.3691 -8.13548 25.2327 3.48731 
